<svg width="24" height="17" viewBox="0 0 24 17" fill="none" xmlns="http://www.w3.org/2000/svg">
<g clip-path="url(#clip0_91_75)">
<path fill-rule="evenodd" clip-rule="evenodd" d="M9.90823 7.74697C10.5317 7.46378 11.0676 7.01143 11.4578 6.43892C11.825 5.8167 12.0059 5.09804 11.9782 4.37176C12.0029 3.70778 11.8831 3.04648 11.6275 2.43565C11.4187 1.91534 11.0757 1.46281 10.6352 1.12642C10.1736 0.784056 9.64861 0.551486 9.09707 0.446417C8.44567 0.298317 7.7797 0.227802 7.11246 0.236278H0.230919C0.139114 0.236278 0.0510682 0.273592 -0.0138482 0.340011C-0.0787647 0.40643 -0.115234 0.496514 -0.115234 0.590445V16.3402C-0.115234 16.4342 -0.0787647 16.5243 -0.0138482 16.5907C0.0510682 16.6571 0.139114 16.6944 0.230919 16.6944H7.26938C7.94323 16.6944 8.61477 16.6023 9.26554 16.4193C9.88768 16.2437 10.4742 15.9559 10.9975 15.5693C11.5143 15.1811 11.9303 14.6691 12.209 14.0783C12.5245 13.4054 12.678 12.665 12.6567 11.9191C12.6811 10.9967 12.4408 10.0872 11.9655 9.30295C11.4722 8.53314 10.7174 7.97789 9.84707 7.74461L9.90823 7.74697ZM3.404 2.89253C3.34279 2.89253 3.2841 2.9174 3.24082 2.96168C3.19754 3.00596 3.17323 3.06602 3.17323 3.12864V6.78836C3.17323 6.91822 3.27707 7.02447 3.404 7.02447H6.63477C7.1703 7.02447 7.6839 6.80681 8.06258 6.41936C8.44126 6.03192 8.654 5.50643 8.654 4.9585C8.654 4.41057 8.44126 3.88508 8.06258 3.49764C7.6839 3.11019 7.1703 2.89253 6.63477 2.89253H3.404ZM3.17323 9.32656C3.17323 9.19669 3.27707 9.09044 3.404 9.09044H6.779C7.42929 9.09044 8.05294 9.35475 8.51277 9.82522C8.97259 10.2957 9.23092 10.9338 9.23092 11.5991C9.23092 12.2645 8.97259 12.9026 8.51277 13.373C8.05294 13.8435 7.42929 14.1078 6.779 14.1078H3.404C3.34279 14.1078 3.2841 14.0829 3.24082 14.0387C3.19754 13.9944 3.17323 13.9343 3.17323 13.8717V9.32656Z" fill="white"/>
<path d="M15.9682 1.07422H21.4178C21.5089 1.07421 21.5962 1.11088 21.661 1.17628C21.7258 1.24168 21.7628 1.33055 21.764 1.42366L21.779 2.55936C21.7796 2.60626 21.7711 2.65283 21.754 2.69634C21.7369 2.73986 21.7115 2.77946 21.6793 2.81285C21.647 2.84624 21.6087 2.87275 21.5664 2.89084C21.5241 2.90894 21.4787 2.91825 21.4328 2.91825H15.9682C15.8764 2.91825 15.7884 2.88093 15.7235 2.81451C15.6585 2.74809 15.6221 2.65801 15.6221 2.56408V1.42839C15.6221 1.33445 15.6585 1.24437 15.7235 1.17795C15.7884 1.11153 15.8764 1.07422 15.9682 1.07422Z" fill="white"/>
<path fill-rule="evenodd" clip-rule="evenodd" d="M18.8904 14.2494C19.452 14.2664 20.0039 14.0966 20.4631 13.7654C20.7631 13.5611 21.002 13.2695 21.1531 12.9248C21.1726 12.8803 21.2039 12.8423 21.2435 12.8152C21.2831 12.788 21.3293 12.7728 21.377 12.7713H23.5935C23.7435 12.7713 23.8543 12.9154 23.8093 13.0617C23.4807 14.1704 22.8185 15.1446 21.917 15.8455C20.968 16.4776 19.8526 16.7969 18.7208 16.7604C17.9166 16.7751 17.1177 16.6241 16.3716 16.3165C15.6931 16.0232 15.089 15.5754 14.605 15.0073C14.126 14.4175 13.7638 13.7378 13.5389 13.0063C13.2694 12.189 13.1386 11.3305 13.1523 10.4681C13.1448 9.61776 13.2798 8.77243 13.5516 7.96883C13.8001 7.23384 14.191 6.55768 14.7008 5.98078C15.201 5.42489 15.8068 4.97938 16.4812 4.67154C17.2062 4.34734 17.9896 4.18245 18.7808 4.18751C19.6235 4.17555 20.4558 4.37841 21.2027 4.77779C21.8859 5.16451 22.4739 5.70554 22.922 6.35973C23.3731 7.0421 23.702 7.80946 23.89 8.62286C24.0836 9.48026 24.1528 10.3621 24.0954 11.2402H16.082C16.0434 12.0762 16.3108 12.897 16.832 13.5422C17.1112 13.8067 17.4389 14.0062 17.7931 14.1278C18.1473 14.2494 18.5212 14.2907 18.8904 14.2494ZM16.1535 8.97112C16.1533 8.98683 16.1563 9.0024 16.1621 9.01694C16.1679 9.03148 16.1764 9.04468 16.1873 9.05579C16.1981 9.06689 16.211 9.07567 16.2253 9.0816C16.2395 9.08754 16.2547 9.09052 16.27 9.09036H20.9408C20.9562 9.09052 20.9714 9.08754 20.9856 9.0816C20.9998 9.07567 21.0127 9.06689 21.0236 9.05579C21.0344 9.04468 21.043 9.03148 21.0488 9.01694C21.0546 9.0024 21.0575 8.98683 21.0573 8.97112C21.0573 8.3374 20.8113 7.72964 20.3733 7.28153C19.9354 6.83342 19.3413 6.58168 18.722 6.58168H18.4889C17.8695 6.58168 17.2755 6.83342 16.8375 7.28153C16.3995 7.72964 16.1535 8.3374 16.1535 8.97112Z" fill="white"/>
</g>
<defs>
<clipPath id="clip0_91_75">
<rect width="24" height="17" fill="white"/>
</clipPath>
</defs>
</svg>
