<svg width="20" height="20" viewBox="0 0 20 20" fill="none" xmlns="http://www.w3.org/2000/svg">
<path d="M10 7.0875C8.3875 7.0875 7.0875 8.4 7.0875 10C7.0875 11.6 8.4 12.9125 10 12.9125C11.6 12.9125 12.9125 11.6 12.9125 10C12.9125 8.4 11.6 7.0875 10 7.0875ZM18.75 10C18.75 8.7875 18.75 7.6 18.6875 6.3875C18.625 4.9875 18.3 3.7375 17.275 2.725C16.25 1.7 15.0125 1.375 13.6125 1.3125C12.4 1.25 11.2125 1.25 10 1.25C8.7875 1.25 7.6 1.25 6.3875 1.3125C4.9875 1.375 3.7375 1.7 2.725 2.725C1.7 3.75 1.375 4.9875 1.3125 6.3875C1.25 7.6 1.25 8.7875 1.25 10C1.25 11.2125 1.25 12.4 1.3125 13.6125C1.375 15.0125 1.7 16.2625 2.725 17.275C3.75 18.3 4.9875 18.625 6.3875 18.6875C7.6 18.75 8.7875 18.75 10 18.75C11.2125 18.75 12.4 18.75 13.6125 18.6875C15.0125 18.625 16.2625 18.3 17.275 17.275C18.3 16.25 18.625 15.0125 18.6875 13.6125C18.7625 12.4125 18.75 11.2125 18.75 10ZM10 14.4875C7.5125 14.4875 5.5125 12.4875 5.5125 10C5.5125 7.5125 7.5125 5.5125 10 5.5125C12.4875 5.5125 14.4875 7.5125 14.4875 10C14.4875 12.4875 12.4875 14.4875 10 14.4875ZM14.675 6.375C14.1 6.375 13.625 5.9125 13.625 5.325C13.625 4.7375 14.0875 4.275 14.675 4.275C15.2625 4.275 15.725 4.7375 15.725 5.325C15.7282 5.46192 15.7032 5.59803 15.6516 5.72489C15.6 5.85176 15.5228 5.96667 15.425 6.0625C15.3292 6.16034 15.2143 6.23746 15.0874 6.28906C14.9605 6.34067 14.8244 6.36566 14.6875 6.3625L14.675 6.375Z" fill="white"/>
</svg>
