<svg width="22" height="21" viewBox="0 0 22 21" fill="none" xmlns="http://www.w3.org/2000/svg">
<path d="M4.73 6.41818C5.83 6.41818 6.71 5.56506 6.71 4.52818C6.71 3.49131 5.81625 2.63818 4.73 2.63818C3.64375 2.63818 2.75 3.49131 2.75 4.52818C2.75 5.56506 3.64375 6.41818 4.73 6.41818ZM8.59375 7.84881V18.3751H12.0037V13.1776C12.0037 11.7994 12.2788 10.4738 14.0525 10.4738C15.8263 10.4738 15.8263 12.0488 15.8263 13.2563V18.3751H19.25V12.6001C19.25 9.76506 18.6175 7.58631 15.1525 7.58631C13.4888 7.58631 12.375 8.45256 11.9213 9.27943H11.88V7.83568H8.6075L8.59375 7.84881ZM3.025 7.84881H6.44875V18.3751H3.025V7.84881Z" fill="white"/>
</svg>
