<svg width="29" height="30" viewBox="0 0 29 30" fill="none" xmlns="http://www.w3.org/2000/svg">
<rect width="29" height="30" rx="6.44444" fill="#2AB090"/>
<path d="M12.167 18.802L12.161 18.788C12.0403 18.7595 11.9203 18.7281 11.801 18.694L11.792 18.691C10.6513 18.3631 9.59783 17.7855 8.708 17C7.72939 16.1367 6.97682 15.0472 6.51591 13.8263C6.055 12.6054 5.89974 11.2904 6.06368 9.99574C6.22761 8.70111 6.70576 7.46624 7.45644 6.39879C8.20711 5.33135 9.20751 4.46375 10.3704 3.87164C11.5333 3.27953 12.8234 2.98089 14.1282 3.00176C15.433 3.02262 16.7129 3.36236 17.8563 3.99135C18.9997 4.62035 19.9718 5.51949 20.688 6.61039C21.4041 7.70129 21.8425 8.95082 21.965 10.25C22.004 10.663 21.665 11 21.25 11C20.836 11 20.505 10.663 20.457 10.251C20.3248 9.11432 19.8948 8.03266 19.2106 7.11539C18.5263 6.19812 17.6121 5.47775 16.5602 5.02711C15.5082 4.57647 14.356 4.41153 13.2199 4.54896C12.0838 4.68639 11.0042 5.12132 10.09 5.80978C9.17594 6.49825 8.45979 7.41584 8.01399 8.46981C7.5682 9.52378 7.40856 10.6768 7.55122 11.8122C7.69388 12.9477 8.13377 14.0253 8.82644 14.9362C9.51911 15.8472 10.44 16.5591 11.496 17L11.536 17.017C11.736 17.099 11.9413 17.1714 12.152 17.234C12.329 16.8063 12.6489 16.4533 13.0571 16.2351C13.4653 16.0168 13.9365 15.9469 14.3905 16.0373C14.8444 16.1277 15.253 16.3727 15.5465 16.7306C15.84 17.0885 16.0003 17.5372 16 18C16.0004 18.4597 15.8426 18.9054 15.5529 19.2623C15.2632 19.6192 14.8595 19.8654 14.4096 19.9596C13.9597 20.0537 13.4911 19.99 13.0827 19.7792C12.6742 19.5684 12.3509 19.2233 12.167 18.802ZM11.181 20.074C9.40454 19.5215 7.82939 18.4596 6.651 17.02C5.92071 17.1056 5.24727 17.4563 4.75856 18.0057C4.26985 18.555 3.99991 19.2647 4 20V20.715C4 24.433 8.21 27 14 27C19.79 27 24 24.292 24 20.715V20C24 19.2044 23.6839 18.4413 23.1213 17.8787C22.5587 17.3161 21.7956 17 21 17H17.355C17.5909 17.7901 17.5403 18.638 17.2121 19.3944C16.884 20.1508 16.2993 20.767 15.5613 21.1345C14.8232 21.502 13.9791 21.5971 13.1777 21.4031C12.3764 21.2091 11.6693 20.7384 11.181 20.074ZM19 11C19 9.48803 18.33 8.13303 17.269 7.21603C16.7366 6.75679 16.1134 6.41499 15.44 6.21293C14.7666 6.01087 14.0582 5.9531 13.3609 6.04338C12.6637 6.13367 11.9933 6.36998 11.3936 6.7369C10.7939 7.10382 10.2783 7.59309 9.88046 8.17278C9.48264 8.75246 9.21154 9.40953 9.08486 10.1011C8.95818 10.7926 8.97878 11.5031 9.14529 12.1862C9.31181 12.8693 9.62051 13.5095 10.0512 14.0652C10.482 14.6209 11.025 15.0795 11.645 15.411C12.2893 14.8249 13.129 14.5001 14 14.5C14.8714 14.4998 15.7114 14.8247 16.356 15.411C17.1549 14.9842 17.8229 14.3484 18.2886 13.5715C18.7543 12.7946 19.0002 11.9058 19 11Z" fill="#EFEFEF"/>
</svg>
