<svg width="29" height="30" viewBox="0 0 29 30" fill="none" xmlns="http://www.w3.org/2000/svg">
<rect width="29" height="30" rx="6.44444" fill="#CA4830"/>
<path d="M4.35148 3.61116C4.33127 3.61086 4.31106 3.61106 4.29086 3.61177C4.05484 3.61967 3.89242 3.69907 3.7817 3.80978C3.63408 3.9574 3.54205 4.1969 3.60106 4.58035C3.66016 4.96379 3.88718 5.47421 4.36996 6.03744C7.78823 10.0254 11.0629 13.8695 13.6189 16.7095C14.2368 17.3961 14.8118 18.0226 15.337 18.5791C15.9459 16.973 17.0775 15.8531 18.5039 15.3209C17.9589 14.8074 17.3492 14.2479 16.6815 13.647C13.8415 11.0909 9.99742 7.81621 6.00947 4.39794C5.44628 3.91511 4.93581 3.68814 4.55237 3.62903C4.48588 3.61861 4.41877 3.61264 4.35148 3.61116ZM23.2372 3.66367C23.2217 3.66351 23.207 3.66389 23.1931 3.66483C23.0818 3.67223 23.025 3.69776 22.9627 3.76004L21.5742 5.14861L24.3511 7.92547L25.7396 6.53689C25.8019 6.47466 25.8274 6.41797 25.8347 6.3066C25.8423 6.19533 25.8161 6.03301 25.7439 5.84522C25.5994 5.46963 25.2768 5.00608 24.8852 4.61448C24.4936 4.22288 24.0301 3.90031 23.6545 3.75581C23.4902 3.69262 23.3455 3.66468 23.2373 3.66367H23.2372ZM20.9334 5.78933L20.435 6.28782L20.9334 6.78616L21.5742 7.42703L22.0726 7.92536L22.7135 8.56623L23.2118 9.06467L23.7102 8.56623L20.9334 5.78933ZM19.7942 6.92859L15.3944 11.3284L15.9214 11.7983L20.2926 7.42703L19.7942 6.92859ZM20.9334 8.0679L16.5989 12.4023L17.126 12.8721L21.4318 8.56623L20.9334 8.0679ZM22.0727 9.20695L17.8035 13.4761L18.3306 13.946L22.5711 9.70544L22.0728 9.207H22.0727V9.20695ZM11.3056 15.4173L5.26911 21.4539L5.76745 21.9522L11.776 15.9437L11.3056 15.4173ZM19.2433 16.0288C17.7097 16.4128 16.5628 17.4982 16.0408 19.3124C16.3254 19.6037 16.5925 19.8705 16.8353 20.1032C17.217 20.4689 17.545 20.7581 17.8025 20.9569C17.892 20.0897 18.3082 19.2924 18.8923 18.7069C19.426 18.1718 20.1256 17.8003 20.8621 17.7456C20.6673 17.5022 20.402 17.2044 20.0752 16.8634C19.8316 16.6093 19.5508 16.3286 19.2433 16.0288ZM12.3809 16.6203L6.40822 22.5929L6.90665 23.0914L12.8514 17.1467L12.3809 16.6203ZM13.4563 17.8233L7.54752 23.7321L8.04576 24.2306L13.9268 18.3497L13.4563 17.8233ZM21.0232 18.6443C20.4997 18.6512 19.9694 18.9102 19.5338 19.3469C18.9529 19.9292 18.5936 20.7995 18.7148 21.6479C18.9833 23.5279 19.9105 24.9612 21.205 25.7379C22.3493 26.4244 23.7954 26.6114 25.4162 26.0894C24.1966 25.8875 23.0763 24.5435 22.9896 23.5394C23.5248 24.1845 24.1949 24.7753 24.9242 25.1379C24.4267 24.0012 24.461 22.8495 24.366 21.8995C24.2979 21.2187 24.1701 20.6417 23.7932 20.1292C23.4163 19.6166 22.7649 19.1323 21.5406 18.7242C21.3739 18.6686 21.1989 18.6416 21.0232 18.6443ZM4.79373 22.2601L4.79358 22.2602L4.79368 22.2603L4.79373 22.2601ZM4.79368 22.2603L4.18362 23.7858L5.71378 25.3161L7.23955 24.7059L6.90675 24.373L6.26573 23.7322L5.7674 23.2339L5.12648 22.5931L4.79368 22.2603ZM3.8172 24.7014L3.16309 26.3364L4.79826 25.6823L3.8172 24.7014Z" fill="white"/>
</svg>
