<svg width="32" height="30" viewBox="0 0 32 30" fill="none" xmlns="http://www.w3.org/2000/svg">
<rect x="2" width="30" height="30" rx="4" fill="#011381"/>
<g clip-path="url(#clip0_91_46)">
<path d="M25.6372 18.7993C24.5608 19.6729 23.3757 20.3969 22.0905 20.9069L24.4272 24.9541L26.7453 25.9441C27.1668 26.1242 27.6429 25.8492 27.6979 25.3941L27.9996 22.8912L25.6372 18.7993ZM27.4629 14.7362C27.6717 14.4066 27.5441 13.9632 27.2029 13.7741L25.9968 13.1051C25.6754 12.9268 25.2831 13.0423 25.0833 13.3509C23.3168 16.0807 20.2764 17.75 17 17.75C15.9718 17.75 14.9706 17.5674 14.0175 17.2546L16.9119 12.241C16.942 12.2418 16.9695 12.25 16.9996 12.25C17.0297 12.25 17.0576 12.2418 17.0872 12.241L19.2825 16.0437C20.6244 15.6587 21.8417 14.9373 22.8322 13.9417L20.6068 10.087C20.9269 9.50129 21.125 8.83957 21.125 8.125C21.125 5.8468 19.2782 4 17 4C14.7218 4 12.875 5.8468 12.875 8.125C12.875 8.83957 13.0731 9.50129 13.3928 10.087L10.458 15.1706C9.91875 14.6717 9.42848 14.114 9.01082 13.4948C8.805 13.1897 8.41055 13.0814 8.09215 13.2658L6.89977 13.9563C6.56246 14.1514 6.44301 14.5965 6.65742 14.9218C7.32645 15.9376 8.14801 16.8214 9.06281 17.5867L6 22.8916L6.30164 25.3946C6.35664 25.8496 6.83273 26.1246 7.25426 25.9446L9.57242 24.9546L12.6146 19.6853C13.9978 20.2112 15.4798 20.5 17 20.5C21.2561 20.5 25.2019 18.3082 27.4629 14.7362ZM17 6.75C17.7593 6.75 18.375 7.36574 18.375 8.125C18.375 8.88426 17.7593 9.5 17 9.5C16.2407 9.5 15.625 8.88426 15.625 8.125C15.625 7.36574 16.2407 6.75 17 6.75Z" fill="#E6E6E6"/>
</g>
<defs>
<clipPath id="clip0_91_46">
<rect width="22" height="22" fill="white" transform="translate(6 4)"/>
</clipPath>
</defs>
</svg>
