<svg width="51" height="51" viewBox="0 0 51 51" fill="none" xmlns="http://www.w3.org/2000/svg">
<rect x="-0.5" y="0.5" width="50" height="50" rx="25" transform="matrix(-1 0 0 1 50 0)" stroke="#9C9C9C"/>
<path d="M20.4844 24.3726L28.1742 16.9666C28.8202 16.3445 29.8696 16.3445 30.5155 16.9666C31.1615 17.5887 31.1615 18.5994 30.5155 19.2214L23.9963 25.5L30.5155 31.7786C31.1615 32.4007 31.1615 33.4114 30.5155 34.0334C30.1926 34.3445 29.7688 34.5 29.3449 34.5C28.921 34.5 28.4972 34.3445 28.1743 34.0334L20.4845 26.6275C19.8385 26.0054 19.8385 24.9947 20.4845 24.3726L20.4844 24.3726Z" fill="#9C9C9C"/>
</svg>
