<svg width="51" height="51" viewBox="0 0 51 51" fill="none" xmlns="http://www.w3.org/2000/svg">
<rect x="-0.5" y="0.5" width="50" height="50" rx="25" transform="matrix(-1 0 0 1 50 0)" stroke="#9C9C9C"/>
<path d="M30.5156 24.3726L22.8258 16.9666C22.1798 16.3445 21.1304 16.3445 20.4845 16.9666C19.8385 17.5887 19.8385 18.5994 20.4845 19.2214L27.0037 25.5L20.4845 31.7786C19.8385 32.4007 19.8385 33.4114 20.4845 34.0334C20.8074 34.3445 21.2312 34.5 21.6551 34.5C22.079 34.5 22.5028 34.3445 22.8257 34.0334L30.5155 26.6275C31.1615 26.0054 31.1615 24.9947 30.5155 24.3726L30.5156 24.3726Z" fill="#9C9C9C"/>
</svg>
